<svg xmlns="http://www.w3.org/2000/svg" xml:space="preserve" width="800" height="800" viewBox="0 0 612 612" fill="#009432"><path d="M517.002 127.269c34.795-48.858 48.567-97.321 49.136-99.359a19.877 19.877 0 0 0-17.38-25.146C528.185.93 508.54 0 490.369 0c-91.523 0-153.357 23.368-183.782 69.456-31.759 48.104-18.893 105.348-8.956 134.088l-.046.078a91.907 91.907 0 0 0-18.563-11.7c-8.083-43.785-36.625-88.232-96.018-88.232-35.876 0-80.007 16.408-131.173 48.769a14.399 14.399 0 0 0-2.864 21.952c2.623 2.831 65.198 69.347 147.254 69.347 20.353 0 40.183-4.142 59.18-12.339 4.999 1.786 19.32 8.008 23.498 21.693-3.719 16.277-6.058 34.191-6.92 53.19H90.676c-12.338 0-22.338 10.001-22.338 22.338v23.308c0 12.338 10.001 22.337 22.338 22.337h15.216L137.81 592.89c1.602 10.974 11.012 19.11 22.103 19.11h286.694c11.091 0 20.501-8.136 22.103-19.11l31.911-218.604h15.22c12.338 0 22.338-10.001 22.338-22.337v-23.31c0-12.338-10.001-22.338-22.338-22.338H317.43c1.71-33.528 8.615-60.571 18.14-77.553 71.857-.62 134.562-35.666 181.432-101.479zM83.253 167.056c39.467-22.953 72.967-34.572 99.751-34.572 36.966 0 54.318 23.243 62.463 45.171a204.74 204.74 0 0 0-3.646-2.009c-12.044-6.528-28.857-13.734-46.45-17.672-4.373-1.028-8.808-1.792-13.163-2.425-2.18-.31-4.362-.507-6.493-.758-2.144-.149-4.262-.295-6.344-.443l-6.129-.14c-1.996.046-3.947.093-5.848.139-3.794.232-7.348.503-10.606.975a56.489 56.489 0 0 0-4.65.718c-1.467.272-2.857.496-4.154.766-2.581.629-4.824 1.107-6.646 1.617l-5.678 1.694 5.881-.472c1.865-.118 4.142-.12 6.723-.197 1.296.007 2.676.077 4.122.113 1.444.029 2.96.093 4.539.257 3.157.206 6.548.667 10.099 1.194l5.427 1.023c1.825.432 3.69.875 5.587 1.323 1.867.538 3.764 1.081 5.688 1.633 1.896.645 3.819 1.236 5.726 1.938 3.81 1.413 7.625 2.935 11.339 4.69 14.93 6.852 28.318 16.354 37.485 24.19a153.688 153.688 0 0 1 10.575 9.8c.37.377.7.722 1.012 1.048-14.128 5.511-28.733 8.305-43.634 8.305-49.481.003-92.311-30.329-112.976-47.906zm256.51-75.696c22.604-34.242 73.277-51.604 150.604-51.604 9.277 0 18.986.263 29.049.78-18.246 44.301-67.983 137.118-167.304 147.514.177-.598.365-1.229.58-1.927 1.385-4.488 3.597-11.014 6.796-18.712 1.573-3.861 3.44-7.988 5.5-12.334 2.109-4.309 4.384-8.865 6.991-13.437 2.556-4.607 5.401-9.255 8.437-13.905 1.562-2.282 3.077-4.661 4.756-6.909l2.477-3.434 2.59-3.354c3.451-4.501 7.173-8.777 10.96-12.921 1.9-2.062 3.885-4.001 5.806-5.994 2.013-1.892 3.998-3.759 5.954-5.596 2.044-1.752 4.056-3.473 6.025-5.157l6.018-4.679 5.921-4.176c1.918-1.364 3.885-2.481 5.722-3.67.93-.574 1.83-1.165 2.733-1.695l2.68-1.488c1.752-.959 3.402-1.914 4.988-2.74 3.217-1.537 6.016-2.973 8.38-4.007l7.518-3.134-8.043 1.509c-2.558.525-5.615 1.351-9.182 2.211-1.763.489-3.613 1.088-5.587 1.683-.986.304-2 .613-3.035.932-1.028.343-2.06.742-3.126 1.125-2.113.804-4.386 1.531-6.636 2.503l-7.004 2.999a8913.171 8913.171 0 0 0-7.266 3.524l-7.438 4.043-7.509 4.55c-2.461 1.653-5.013 3.274-7.494 5.031-4.946 3.527-9.908 7.266-14.629 11.291-4.798 3.958-9.324 8.22-13.729 12.502-4.355 4.322-8.524 8.717-12.38 13.136-3.907 4.386-7.45 8.818-10.785 13.069-3.279 4.286-6.315 8.411-8.982 12.323a266.924 266.924 0 0 0-3.001 4.453c-2.499-22.401.3-45.605 12.645-64.305z"/></svg>